<svg id="visual" viewBox="0 0 960 960" width="960" height="960" xmlns="http://www.w3.org/2000/svg" xmlns:xlink="http://www.w3.org/1999/xlink" version="1.1"><g transform="translate(477.73691582325046 456.15316816655184)"><path d="M217.9 -315.1C255.9 -272.3 242.1 -173.2 273.2 -86.6C304.3 0 380.4 74.2 375.5 132.1C370.6 190 284.6 231.7 208.5 279.9C132.4 328 66.2 382.5 -6.2 391C-78.6 399.5 -157.1 361.9 -224.8 311.1C-292.5 260.3 -349.3 196.1 -365.8 123.9C-382.3 51.7 -358.5 -28.5 -328 -101.6C-297.4 -174.7 -260.1 -240.7 -204.3 -277.7C-148.5 -314.7 -74.3 -322.9 7.8 -333.7C89.9 -344.4 179.9 -357.9 217.9 -315.1" fill="#ffffff"></path></g></svg>