<svg id="visual" viewBox="0 0 900 300" width="900" height="300" xmlns="http://www.w3.org/2000/svg" xmlns:xlink="http://www.w3.org/1999/xlink" version="1.1"><rect x="0" y="0" width="900" height="300" fill="#fff5fc"></rect><path d="M0 83L21.5 85C43 87 86 91 128.8 86.3C171.7 81.7 214.3 68.3 257.2 69.7C300 71 343 87 385.8 93.2C428.7 99.3 471.3 95.7 514.2 91.8C557 88 600 84 642.8 83.8C685.7 83.7 728.3 87.3 771.2 91C814 94.7 857 98.3 878.5 100.2L900 102L900 0L878.5 0C857 0 814 0 771.2 0C728.3 0 685.7 0 642.8 0C600 0 557 0 514.2 0C471.3 0 428.7 0 385.8 0C343 0 300 0 257.2 0C214.3 0 171.7 0 128.8 0C86 0 43 0 21.5 0L0 0Z" fill="#120932"></path><path d="M0 48L21.5 49.8C43 51.7 86 55.3 128.8 56.8C171.7 58.3 214.3 57.7 257.2 53C300 48.3 343 39.7 385.8 34.8C428.7 30 471.3 29 514.2 35.7C557 42.3 600 56.7 642.8 61.5C685.7 66.3 728.3 61.7 771.2 59.5C814 57.3 857 57.7 878.5 57.8L900 58L900 0L878.5 0C857 0 814 0 771.2 0C728.3 0 685.7 0 642.8 0C600 0 557 0 514.2 0C471.3 0 428.7 0 385.8 0C343 0 300 0 257.2 0C214.3 0 171.7 0 128.8 0C86 0 43 0 21.5 0L0 0Z" fill="#38227f"></path></svg>