<svg id="visual" viewBox="0 0 900 300" width="900" height="300" xmlns="http://www.w3.org/2000/svg" xmlns:xlink="http://www.w3.org/1999/xlink" version="1.1"><rect x="0" y="0" width="900" height="300" fill="#fff5fc"></rect><path d="M0 118L21.5 110.5C43 103 86 88 128.8 79C171.7 70 214.3 67 257.2 71.5C300 76 343 88 385.8 95.8C428.7 103.7 471.3 107.3 514.2 107.3C557 107.3 600 103.7 642.8 100.8C685.7 98 728.3 96 771.2 91.8C814 87.7 857 81.3 878.5 78.2L900 75L900 0L878.5 0C857 0 814 0 771.2 0C728.3 0 685.7 0 642.8 0C600 0 557 0 514.2 0C471.3 0 428.7 0 385.8 0C343 0 300 0 257.2 0C214.3 0 171.7 0 128.8 0C86 0 43 0 21.5 0L0 0Z" fill="#120932"></path><path d="M0 31L21.5 32.2C43 33.3 86 35.7 128.8 38.3C171.7 41 214.3 44 257.2 42C300 40 343 33 385.8 29.5C428.7 26 471.3 26 514.2 28.5C557 31 600 36 642.8 40.5C685.7 45 728.3 49 771.2 53C814 57 857 61 878.5 63L900 65L900 0L878.5 0C857 0 814 0 771.2 0C728.3 0 685.7 0 642.8 0C600 0 557 0 514.2 0C471.3 0 428.7 0 385.8 0C343 0 300 0 257.2 0C214.3 0 171.7 0 128.8 0C86 0 43 0 21.5 0L0 0Z" fill="#38227f"></path></svg>