<svg id="visual" viewBox="0 0 960 300" width="960" height="300" xmlns="http://www.w3.org/2000/svg" xmlns:xlink="http://www.w3.org/1999/xlink" version="1.1"><rect x="0" y="0" width="960" height="300" fill="#fff5fc"></rect><path d="M0 140L14.5 141.2C29 142.3 58 144.7 87.2 139.8C116.3 135 145.7 123 174.8 119.3C204 115.7 233 120.3 262 114.7C291 109 320 93 349 94.2C378 95.3 407 113.7 436.2 116.3C465.3 119 494.7 106 523.8 104.7C553 103.3 582 113.7 611 117.2C640 120.7 669 117.3 698 109C727 100.7 756 87.3 785.2 89.3C814.3 91.3 843.7 108.7 872.8 116.5C902 124.3 931 122.7 945.5 121.8L960 121L960 0L945.5 0C931 0 902 0 872.8 0C843.7 0 814.3 0 785.2 0C756 0 727 0 698 0C669 0 640 0 611 0C582 0 553 0 523.8 0C494.7 0 465.3 0 436.2 0C407 0 378 0 349 0C320 0 291 0 262 0C233 0 204 0 174.8 0C145.7 0 116.3 0 87.2 0C58 0 29 0 14.5 0L0 0Z" fill="#120932"></path><path d="M0 37L14.5 40C29 43 58 49 87.2 48C116.3 47 145.7 39 174.8 40C204 41 233 51 262 50.5C291 50 320 39 349 36C378 33 407 38 436.2 48.2C465.3 58.3 494.7 73.7 523.8 75.5C553 77.3 582 65.7 611 63.3C640 61 669 68 698 70.3C727 72.7 756 70.3 785.2 63.5C814.3 56.7 843.7 45.3 872.8 43.2C902 41 931 48 945.5 51.5L960 55L960 0L945.5 0C931 0 902 0 872.8 0C843.7 0 814.3 0 785.2 0C756 0 727 0 698 0C669 0 640 0 611 0C582 0 553 0 523.8 0C494.7 0 465.3 0 436.2 0C407 0 378 0 349 0C320 0 291 0 262 0C233 0 204 0 174.8 0C145.7 0 116.3 0 87.2 0C58 0 29 0 14.5 0L0 0Z" fill="#38227f"></path></svg>